@startuml
!include ../StateDiagramsSetUp.puml

USE_CASE_MANAGEMENT ---> CreateUseCase

state CreateUseCase {

    'Main path
    [*] --> Form
    note on link
        <b>User request</b>
        * to create a use case
    end note

    note right of Form
      <b>Fields</b>
      * name [required] [unique] [length > 5 && < 25 ]
      * description [optional] [length > 5 && < 200 ]
    end note

    Form --> SaveConfirmation

    SaveConfirmation --> OpenUseCases

    OpenUseCases --> [*]
}

CreateUseCase --> USECASES_MANAGEMENT

@enduml
